<?xml version="1.0" ?><svg height="128" id="svg8" version="1.1" viewBox="0 0 33.866666 33.866668" width="128" xmlns="http://www.w3.org/2000/svg" xmlns:svg="http://www.w3.org/2000/svg" xmlns:xlink="http://www.w3.org/1999/xlink"><defs id="defs2"><clipPath clipPathUnits="userSpaceOnUse" id="clipPath5292"><ellipse cx="554.68481" cy="1234.8002" id="ellipse5294" rx="46.906162" ry="46.90797" style="display:inline;opacity:0.469;fill:#ffaaaa;fill-rule:evenodd;stroke:#333333;stroke-width:3.5625;stroke-linecap:round;stroke-linejoin:round;stroke-miterlimit:4;stroke-dasharray:none;stroke-dashoffset:6.5999999;stroke-opacity:1"/></clipPath><clipPath clipPathUnits="userSpaceOnUse" id="clipPath6174"><ellipse cx="128.2972" cy="1416.0679" id="ellipse6176" rx="55.76445" ry="55.766594" style="display:inline;opacity:0.572;fill:#ff9696;fill-opacity:1;fill-rule:evenodd;stroke:#333333;stroke-width:4.21448183;stroke-linecap:round;stroke-linejoin:round;stroke-miterlimit:4;stroke-dasharray:none;stroke-dashoffset:6.5999999;stroke-opacity:1"/></clipPath><clipPath clipPathUnits="userSpaceOnUse" id="clipPath5123"><ellipse cx="68.499504" cy="1656.6876" id="ellipse5125" rx="71.409416" ry="71.223892" style="display:inline;opacity:0.45199998;fill:#ffe680;fill-rule:evenodd;stroke:none;stroke-width:4.21448183;stroke-linecap:round;stroke-linejoin:round;stroke-miterlimit:4;stroke-dasharray:none;stroke-dashoffset:6.5999999;stroke-opacity:1"/></clipPath><clipPath clipPathUnits="userSpaceOnUse" id="clipPath8754"><ellipse cx="205.48343" cy="1298.3982" id="ellipse8756" rx="78.18396" ry="83.010139" style="display:inline;opacity:0.419;fill:#ffaaaa;fill-opacity:1;fill-rule:evenodd;stroke:#333333;stroke-width:4.21448183;stroke-linecap:round;stroke-linejoin:round;stroke-miterlimit:4;stroke-dasharray:none;stroke-dashoffset:6.5999999;stroke-opacity:1"/></clipPath><clipPath clipPathUnits="userSpaceOnUse" id="clipPath11474"><ellipse cx="230.12242" cy="1486.3468" id="ellipse11476" rx="55.76445" ry="55.766594" style="display:inline;opacity:0.32099998;fill:#efb5e3;fill-opacity:1;fill-rule:evenodd;stroke:none;stroke-width:4.21448183;stroke-linecap:round;stroke-linejoin:round;stroke-miterlimit:4;stroke-dasharray:none;stroke-dashoffset:6.5999999;stroke-opacity:1"/></clipPath><clipPath clipPathUnits="userSpaceOnUse" id="clipPath5143"><ellipse cx="209.94763" cy="1573.1123" id="ellipse5145" rx="55.764446" ry="55.766594" style="display:inline;opacity:0.43500001;fill:#ffaaaa;fill-rule:evenodd;stroke:#333333;stroke-width:4.21448183;stroke-linecap:round;stroke-linejoin:round;stroke-miterlimit:4;stroke-dasharray:none;stroke-dashoffset:6.5999999;stroke-opacity:1"/></clipPath></defs><g id="layer1" transform="translate(0,-263.13332)"><g id="g8961" transform="matrix(0.28705162,0,0,0.28705162,-147.59811,-179.78097)"><g id="g11308"><g clip-path="none" id="g8874" style="stroke:none;stroke-width:1.78217089;stroke-miterlimit:4;stroke-dasharray:none" transform="matrix(0.82914024,0,0,0.78096436,403.5712,548.27901)"><path d="m 227.39844,1276.9258 a 6.220288,6.220288 0 0 0 -4.04297,1.3515 c -3.29017,2.6211 -8.06021,4.4914 -12.1543,9.6875 -4.09408,5.1961 -5.827,12.9211 -4.48633,24.4786 a 6.220288,6.220288 0 0 0 3.44336,4.8691 c 3.47754,1.7026 7.01361,2.0363 10.23047,1.7129 3.21687,-0.3235 6.40494,-0.5898 9.21485,-4.5625 a 6.220288,6.220288 0 0 0 0.2871,-6.7383 c -2.84029,-4.8423 -2.76544,-6.6366 -2.06445,-9.4687 0.70099,-2.8322 2.98398,-6.9102 5.23242,-12.9395 a 6.220288,6.220288 0 0 0 -5.66015,-8.3906 z" id="path8903" style="fill:#000000;fill-opacity:1;fill-rule:evenodd;stroke:none;stroke-width:1.78217089;stroke-linecap:round;stroke-linejoin:round;stroke-miterlimit:4;stroke-dasharray:none;stroke-opacity:1" xlink:href="#path8868"/><path d="m 186.84766,1277.8867 a 6.4883736,6.4883736 0 0 0 -5.74805,8.8242 c 2.22692,5.7441 4.34618,9.7532 4.97461,12.5762 0.62843,2.823 0.65228,4.6428 -2.125,9.1973 a 6.4883736,6.4883736 0 0 0 3.67187,9.5898 c -0.27969,-0.084 1.29469,1.054 4.52344,1.7285 3.22876,0.6746 7.02876,0.2681 12.17383,-1.4062 a 6.4883736,6.4883736 0 0 0 4.43359,-5.3926 c 1.36355,-11.3067 -0.74038,-19.2135 -5.11718,-24.3301 -4.37681,-5.1166 -9.32347,-6.9934 -12.54102,-9.459 a 6.4883736,6.4883736 0 0 0 -4.24609,-1.3281 z" id="path8899" style="fill:#000000;fill-opacity:1;fill-rule:evenodd;stroke:none;stroke-width:1.78217089;stroke-linecap:round;stroke-linejoin:round;stroke-miterlimit:4;stroke-dasharray:none;stroke-opacity:1" xlink:href="#path8870"/><path d="m 206.34375,1274.3125 a 6.5274867,6.5274867 0 0 0 -5.91797,4.1035 c -4.90997,12.2837 -4.9601,23.6473 -6.24023,33.6797 a 6.5274867,6.5274867 0 0 0 3.86718,6.8105 c 6.09116,2.6539 12.91335,2.3896 18.94336,-0.094 a 6.5274867,6.5274867 0 0 0 3.70703,-8.0957 c -1.40355,-4.2185 -1.75799,-9.24 -2.52539,-14.9766 -0.76739,-5.7365 -2.0816,-12.3132 -6.27734,-18.5468 a 6.5274867,6.5274867 0 0 0 -5.55664,-2.8809 z" id="path8901" style="fill:#000000;fill-opacity:1;fill-rule:evenodd;stroke:none;stroke-width:1.78217089;stroke-linecap:round;stroke-linejoin:round;stroke-miterlimit:4;stroke-dasharray:none;stroke-opacity:1" xlink:href="#path8872"/><path d="m 259.74851,1357.5705 c -2.56759,-40.4289 -35.70025,-46.4685 -35.70025,-46.4685 l -34.65505,-1.7776 c 0,0 -37.4424,6.2231 -40.0338,49.036 -1.84166,30.4263 20.68215,57.4788 55.48833,59.041 35.06884,1.5738 56.71715,-31.2306 54.90077,-59.8309 z" id="path8864" style="fill:#f34444;fill-opacity:1;fill-rule:evenodd;stroke:none;stroke-width:1.78217089;stroke-linecap:round;stroke-linejoin:round;stroke-miterlimit:4;stroke-dasharray:none;stroke-opacity:1"/><path d="m 189.06836,1302.666 a 6.6665559,6.6665559 0 0 0 -0.76953,0.082 c 0,0 -10.87001,1.8013 -21.82227,9.6133 -10.95226,7.812 -22.35999,22.2781 -23.77148,45.5977 -2.05409,33.9359 23.7227,64.3906 61.84375,66.1015 19.66808,0.8827 36.02768,-8.0755 46.71875,-21.0136 10.69107,-12.9382 16.15739,-29.7657 15.13281,-45.8985 -1.39741,-22.0034 -11.56973,-35.7576 -21.42187,-43.2734 -9.85215,-7.5158 -19.73438,-9.332 -19.73438,-9.332 a 6.6665559,6.6665559 0 0 0 -0.85352,-0.098 l -34.65624,-1.7773 a 6.6665559,6.6665559 0 0 0 -0.66602,-0 z" id="path8897" style="fill:#000000;fill-opacity:1;fill-rule:evenodd;stroke:none;stroke-width:1.78217089;stroke-linecap:round;stroke-linejoin:round;stroke-miterlimit:4;stroke-dasharray:none;stroke-opacity:1" xlink:href="#path8866"/><path d="m 259.74851,1357.5705 c -2.56759,-40.4289 -35.70025,-46.4685 -35.70025,-46.4685 l -34.65505,-1.7776 c 0,0 -37.4424,6.2231 -40.0338,49.036 -1.84166,30.4263 20.68215,57.4788 55.48833,59.041 35.06884,1.5738 56.71715,-31.2306 54.90077,-59.8309 z" id="path8866" style="fill:#f34444;fill-opacity:1;fill-rule:evenodd;stroke:none;stroke-width:1.78217089;stroke-linecap:round;stroke-linejoin:round;stroke-miterlimit:4;stroke-dasharray:none;stroke-opacity:1"/><path d="m 212.89205,1311.7271 c -2.48814,-21.4494 6.2257,-22.1215 14.33919,-28.5851 -4.08941,10.966 -9.52225,16.1103 -2.70682,27.7296 -1.43046,2.0224 -7.38445,2.9353 -11.63237,0.8555 z" id="path8868" style="fill:#c83737;fill-opacity:1;fill-rule:evenodd;stroke:none;stroke-width:1.78217089;stroke-linecap:round;stroke-linejoin:round;stroke-miterlimit:4;stroke-dasharray:none;stroke-opacity:1"/><path d="m 202.31017,1312.2268 c 2.48814,-20.632 -7.04859,-21.6443 -15.16207,-27.8615 4.08941,10.5481 9.15653,16.3192 2.3411,27.4958 2.63434,0.7918 3.71004,3.3306 12.82097,0.3657 z" id="path8870" style="fill:#c83737;fill-opacity:1;fill-rule:evenodd;stroke:none;stroke-width:1.78217089;stroke-linecap:round;stroke-linejoin:round;stroke-miterlimit:4;stroke-dasharray:none;stroke-opacity:1"/><path d="m 200.66096,1312.921 c 1.34459,-10.5376 1.43995,-21.1118 5.82566,-32.0839 6.74181,10.0163 4.51133,21.3848 8.02297,31.9394 -4.46476,1.8387 -9.6865,1.9579 -13.84863,0.1445 z" id="path8872" style="fill:#c83737;fill-opacity:1;fill-rule:evenodd;stroke:none;stroke-width:1.78217089;stroke-linecap:round;stroke-linejoin:round;stroke-miterlimit:4;stroke-dasharray:none;stroke-opacity:1"/></g><path d="m 543.85447,1588.6131 c 0.55285,0.2202 -0.54297,3.6358 -1.58414,9.267 -1.02724,5.5559 -1.99006,13.4593 -0.18197,21.6802 0.0223,0.1032 0.0451,0.2065 0.0683,0.3099 1.14846,5.1109 3.20638,9.5266 5.63604,13.1156 5.46311,8.1076 11.80182,11.7411 11.42982,12.3715 -0.12549,0.2126 -7.37504,-1.6167 -14.16375,-10.3894 -2.9136,-3.7808 -5.36004,-8.6078 -6.62773,-14.2615 -0.0256,-0.1142 -0.0507,-0.2284 -0.0751,-0.3425 -1.92282,-9.1095 -0.45809,-17.4897 1.29432,-23.1338 1.77537,-5.7181 3.79764,-8.7789 4.20422,-8.617 z" id="path8933" style="opacity:1;fill:#000000;fill-opacity:1;fill-rule:evenodd;stroke:none;stroke-width:7.22920084;stroke-linecap:round;stroke-linejoin:round;stroke-miterlimit:4;stroke-dasharray:none;stroke-dashoffset:0;stroke-opacity:1"/></g></g></g></svg>